<?xml version="1.0" standalone="no"?>
<!DOCTYPE svg PUBLIC "-//W3C//DTD SVG 20010904//EN"
 "http://www.w3.org/TR/2001/REC-SVG-20010904/DTD/svg10.dtd">
<svg version="1.0" xmlns="http://www.w3.org/2000/svg"
 width="810.000000pt" height="810.000000pt" viewBox="0 0 810.000000 810.000000"
 preserveAspectRatio="xMidYMid meet">
<metadata>
Created by potrace 1.10, written by Peter Selinger 2001-2011
</metadata>
<g transform="translate(0.000000,810.000000) scale(0.100000,-0.100000)"
fill="#ffffff" stroke="none">
<path d="M0 4050 l0 -4050 4050 0 4050 0 0 4050 0 4050 -4050 0 -4050 0 0
-4050z m1790 3935 c9 -10 32 -15 75 -15 43 0 66 -5 75 -15 9 -10 32 -15 75
-15 43 0 66 -5 75 -15 8 -9 30 -15 60 -15 30 0 52 -6 60 -15 9 -10 32 -15 75
-15 43 0 66 -5 75 -15 8 -9 30 -15 60 -15 30 0 52 -6 60 -15 9 -10 32 -15 75
-15 43 0 66 -5 75 -15 9 -10 32 -15 75 -15 43 0 66 -5 75 -15 8 -9 30 -15 60
-15 30 0 52 -6 60 -15 9 -10 32 -15 75 -15 43 0 66 -5 75 -15 8 -9 30 -15 60
-15 30 0 52 -6 60 -15 9 -10 32 -15 75 -15 43 0 66 -5 75 -15 8 -9 30 -15 60
-15 30 0 52 -6 60 -15 9 -10 32 -15 75 -15 43 0 66 -5 75 -15 8 -9 30 -15 60
-15 30 0 52 -6 60 -15 7 -8 28 -15 47 -15 21 0 36 -6 39 -15 4 -8 12 -15 20
-15 8 0 14 7 14 15 0 8 6 15 14 15 8 0 16 -7 20 -15 4 -11 20 -15 54 -15 32 0
54 -5 62 -15 9 -10 32 -15 75 -15 43 0 66 -5 75 -15 9 -10 32 -15 75 -15 43 0
66 -5 75 -15 8 -9 30 -15 60 -15 30 0 52 -6 60 -15 9 -10 32 -15 75 -15 43 0
66 -5 75 -15 8 -9 30 -15 60 -15 30 0 52 -6 60 -15 9 -10 32 -15 75 -15 43 0
66 -5 75 -15 8 -9 30 -15 60 -15 30 0 52 -6 60 -15 9 -10 32 -15 75 -15 43 0
66 -5 75 -15 8 -9 30 -15 60 -15 30 0 52 -6 60 -15 9 -10 32 -15 75 -15 43 0
66 -5 75 -15 8 -9 30 -15 60 -15 30 0 52 -6 60 -15 9 -10 32 -15 75 -15 43 0
66 -5 75 -15 7 -8 27 -15 45 -15 18 0 38 -7 45 -15 9 -10 32 -15 75 -15 43 0
66 -5 75 -15 9 -11 33 -15 90 -15 57 0 81 -4 90 -15 8 -9 30 -15 60 -15 30 0
52 -6 60 -15 9 -10 32 -15 75 -15 43 0 66 -5 75 -15 8 -9 30 -15 60 -15 30 0
52 -6 60 -15 9 -10 32 -15 75 -15 43 0 66 -5 75 -15 8 -9 30 -15 60 -15 30 0
52 -6 60 -15 9 -10 32 -15 75 -15 43 0 66 -5 75 -15 8 -9 30 -15 60 -15 30 0
52 -6 60 -15 9 -10 32 -15 75 -15 43 0 66 -5 75 -15 9 -10 32 -15 75 -15 43 0
66 -5 75 -15 8 -9 30 -15 60 -15 30 0 52 -6 60 -15 9 -10 32 -15 75 -15 43 0
66 -5 75 -15 8 -9 30 -15 60 -15 30 0 52 -6 60 -15 7 -8 20 -15 30 -15 10 0
23 -7 30 -15 7 -8 27 -15 45 -15 18 0 38 -7 45 -15 7 -8 26 -15 43 -15 35 0
107 -61 107 -91 0 -9 7 -22 15 -29 11 -9 15 -35 15 -105 0 -70 -4 -96 -15
-105 -11 -9 -15 -33 -15 -90 0 -57 -4 -81 -15 -90 -10 -9 -15 -32 -15 -75 0
-43 -5 -66 -15 -75 -9 -8 -15 -30 -15 -60 0 -30 -6 -52 -15 -60 -10 -9 -15
-32 -15 -75 0 -43 -5 -66 -15 -75 -10 -9 -15 -32 -15 -75 0 -43 -5 -66 -15
-75 -10 -9 -15 -32 -15 -75 0 -43 -5 -66 -15 -75 -9 -8 -15 -30 -15 -60 0 -30
-6 -52 -15 -60 -10 -9 -15 -32 -15 -75 0 -43 -5 -66 -15 -75 -10 -9 -15 -32
-15 -75 0 -43 -5 -66 -15 -75 -9 -8 -15 -30 -15 -60 0 -30 -6 -52 -15 -60 -10
-9 -15 -32 -15 -75 0 -43 -5 -66 -15 -75 -10 -9 -15 -32 -15 -75 0 -43 -5 -66
-15 -75 -9 -8 -15 -30 -15 -60 0 -30 -6 -52 -15 -60 -10 -9 -15 -32 -15 -75 0
-43 -5 -66 -15 -75 -10 -9 -15 -32 -15 -75 0 -43 -5 -66 -15 -75 -9 -8 -15
-30 -15 -60 0 -30 -6 -52 -15 -60 -10 -9 -15 -32 -15 -75 0 -43 -5 -66 -15
-75 -10 -9 -15 -32 -15 -75 0 -43 -5 -66 -15 -75 -9 -8 -15 -30 -15 -60 0 -30
-6 -52 -15 -60 -10 -9 -15 -32 -15 -75 0 -43 -5 -66 -15 -75 -10 -9 -15 -32
-15 -75 0 -43 -5 -66 -15 -75 -9 -8 -15 -30 -15 -60 0 -30 -6 -52 -15 -60 -10
-9 -15 -32 -15 -75 0 -43 -5 -66 -15 -75 -10 -9 -15 -32 -15 -77 0 -47 -4 -65
-15 -69 -11 -4 -15 -21 -15 -59 0 -34 -5 -57 -15 -65 -10 -9 -15 -32 -15 -74
0 -56 -3 -65 -30 -91 -25 -24 -30 -37 -30 -76 0 -29 -6 -51 -15 -59 -9 -8 -15
-30 -15 -60 0 -30 -6 -52 -15 -60 -10 -9 -15 -32 -15 -75 0 -43 -5 -66 -15
-75 -9 -8 -15 -30 -15 -60 0 -30 -6 -52 -15 -60 -9 -8 -15 -30 -15 -60 0 -30
-6 -52 -15 -60 -19 -16 -19 -44 0 -60 19 -16 19 -74 0 -90 -9 -8 -15 -30 -15
-60 0 -30 -6 -52 -15 -60 -10 -9 -15 -32 -15 -75 0 -43 -5 -66 -15 -75 -10 -9
-15 -32 -15 -75 0 -43 -5 -66 -15 -75 -9 -8 -15 -30 -15 -60 0 -30 -6 -52 -15
-60 -10 -9 -15 -32 -15 -75 0 -43 -5 -66 -15 -75 -9 -8 -15 -30 -15 -60 0 -30
-6 -52 -15 -60 -10 -9 -15 -32 -15 -75 0 -43 -5 -66 -15 -75 -9 -8 -15 -30
-15 -60 0 -30 -6 -52 -15 -60 -10 -9 -15 -32 -15 -75 0 -43 -5 -66 -15 -75 -9
-8 -15 -30 -15 -60 0 -30 -6 -52 -15 -60 -8 -7 -15 -26 -15 -43 0 -34 -34 -77
-60 -77 -8 0 -42 -27 -75 -60 -33 -33 -67 -60 -76 -60 -9 0 -22 -7 -29 -15 -7
-8 -21 -15 -32 -15 -10 0 -21 -7 -24 -15 -8 -19 -30 -19 -38 0 -7 20 -70 20
-86 0 -18 -21 -162 -21 -180 0 -14 17 -90 21 -90 5 0 -17 -20 -11 -48 15 -23
21 -37 25 -88 25 -43 0 -65 5 -74 15 -14 17 -60 21 -60 5 0 -17 -20 -11 -48
15 -19 17 -38 25 -64 25 -21 0 -38 -4 -38 -10 0 -17 -20 -11 -48 15 -21 19
-38 25 -73 25 -29 0 -51 6 -59 15 -16 20 -74 19 -90 0 -12 -14 -17 -12 -45 15
-25 24 -39 30 -77 30 -28 0 -50 6 -58 15 -16 20 -74 19 -90 0 -12 -14 -17 -12
-45 15 -25 24 -39 30 -77 30 -28 0 -50 6 -58 15 -16 20 -74 19 -90 0 -12 -14
-17 -12 -45 15 -25 24 -39 30 -77 30 -28 0 -50 6 -58 15 -14 17 -85 21 -95 4
-4 -6 -19 0 -40 15 -24 19 -46 26 -78 26 -27 0 -49 6 -57 15 -9 10 -32 15 -75
15 -43 0 -66 5 -75 15 -14 17 -90 21 -90 5 0 -17 -20 -11 -48 15 -21 19 -38
25 -73 25 -29 0 -51 6 -59 15 -16 20 -74 19 -90 0 -12 -14 -17 -12 -45 15 -25
24 -39 30 -77 30 -28 0 -50 6 -58 15 -16 20 -74 19 -90 0 -12 -14 -17 -12 -45
15 -25 24 -39 30 -77 30 -28 0 -50 6 -58 15 -16 20 -74 19 -90 0 -12 -14 -17
-12 -45 15 -25 24 -39 30 -77 30 -28 0 -50 6 -58 15 -16 20 -74 19 -90 0 -12
-14 -17 -12 -45 15 -28 27 -38 30 -92 30 -42 0 -64 5 -73 15 -14 17 -60 21
-60 5 0 -18 -26 -10 -50 15 -17 18 -34 25 -61 25 -21 0 -41 -5 -44 -11 -4 -6
-19 0 -40 15 -24 19 -46 26 -78 26 -27 0 -49 6 -57 15 -18 21 -86 20 -94 -2
-6 -14 -12 -12 -39 15 -27 27 -41 32 -79 32 -28 0 -50 6 -58 15 -14 17 -90 21
-90 5 0 -17 -20 -11 -48 15 -21 19 -38 25 -73 25 -29 0 -51 6 -59 15 -14 17
-85 21 -95 4 -4 -6 -19 0 -40 15 -24 19 -46 26 -78 26 -27 0 -49 6 -57 15 -9
10 -32 15 -75 15 -43 0 -66 5 -75 15 -9 10 -32 15 -77 15 -47 0 -65 4 -69 15
-8 21 -60 19 -68 -2 -6 -14 -12 -12 -39 15 -25 24 -42 32 -69 32 -20 0 -40 -5
-43 -11 -4 -6 -19 0 -40 15 -24 19 -46 26 -78 26 -27 0 -49 6 -57 15 -14 17
-90 21 -90 5 0 -18 -26 -10 -50 15 -13 14 -31 25 -41 25 -9 0 -22 7 -29 15 -7
8 -20 15 -30 15 -10 0 -23 7 -30 15 -9 11 -33 15 -90 15 -57 0 -81 4 -90 15
-8 9 -30 15 -60 15 -30 0 -52 6 -60 15 -7 8 -27 15 -45 15 -18 0 -38 7 -45 15
-7 8 -20 15 -28 15 -22 0 -92 70 -92 91 0 9 -7 22 -15 29 -22 18 -22 342 0
360 10 9 15 32 15 75 0 43 5 66 15 75 9 8 15 30 15 60 0 30 6 52 15 60 10 9
15 32 15 75 0 43 5 66 15 75 10 9 15 32 15 75 0 43 5 66 15 75 9 8 15 30 15
60 0 30 6 52 15 60 10 9 15 32 15 75 0 43 5 66 15 75 9 8 15 30 15 60 0 30 6
52 15 60 10 9 15 32 15 75 0 43 5 66 15 75 9 8 15 30 15 60 0 30 6 52 15 60
10 9 15 32 15 75 0 43 5 66 15 75 9 8 15 30 15 60 0 30 6 52 15 60 10 9 15 32
15 75 0 43 5 66 15 75 8 7 15 20 15 30 0 10 7 23 15 30 8 7 15 27 15 45 0 18
7 38 15 45 12 10 15 38 15 137 0 101 3 125 15 129 11 4 15 21 15 59 0 34 5 57
15 65 10 9 15 32 15 75 0 43 5 66 15 75 9 8 15 30 15 60 0 30 6 52 15 60 10 9
15 32 15 75 0 43 5 66 15 75 9 8 15 30 15 60 0 30 6 52 15 60 10 9 15 32 15
75 0 43 5 66 15 75 9 8 15 30 15 60 0 30 6 52 15 60 10 9 15 32 15 75 0 43 5
66 15 75 9 8 15 30 15 60 0 30 6 52 15 60 10 9 15 32 15 75 0 43 5 66 15 75
10 9 15 32 15 75 0 43 5 66 15 75 9 8 15 30 15 60 0 30 6 52 15 60 8 7 15 20
15 30 0 10 7 23 15 30 9 8 15 30 15 60 0 30 6 52 15 60 12 10 15 37 15 120 0
83 3 110 15 120 9 8 15 30 15 60 0 30 6 52 15 60 10 9 15 32 15 75 0 43 5 66
15 75 9 8 15 30 15 60 0 30 6 52 15 60 10 9 15 32 15 75 0 43 5 66 15 75 9 8
15 30 15 60 0 30 6 52 15 60 10 9 15 32 15 75 0 43 5 66 15 75 10 9 15 32 15
75 0 43 5 66 15 75 9 8 15 30 15 60 0 30 6 52 15 60 10 9 15 32 15 77 0 47 4
65 15 69 11 4 15 21 15 59 0 34 5 57 15 65 10 9 15 32 15 75 0 43 5 66 15 75
8 7 15 20 15 30 0 10 7 23 15 30 8 7 15 20 15 30 0 10 7 23 15 30 9 8 15 30
15 60 0 30 6 52 15 60 8 7 15 20 15 28 0 22 70 92 91 92 9 0 22 7 29 15 7 8
27 15 45 15 18 0 38 7 45 15 8 9 30 15 60 15 30 0 52 -6 60 -15z"/>
<path d="M1767 7573 c-4 -3 -7 -14 -7 -23 0 -10 -7 -23 -15 -30 -9 -8 -15 -30
-15 -60 0 -30 -6 -52 -15 -60 -10 -9 -15 -32 -15 -75 0 -43 -5 -66 -15 -75 -9
-8 -15 -30 -15 -60 0 -30 -6 -52 -15 -60 -10 -9 -15 -32 -15 -75 0 -43 -5 -66
-15 -75 -9 -8 -15 -30 -15 -60 0 -30 -6 -52 -15 -60 -10 -9 -15 -32 -15 -75 0
-43 -5 -66 -15 -75 -9 -8 -15 -30 -15 -60 0 -30 -6 -52 -15 -60 -10 -9 -15
-32 -15 -75 0 -43 -5 -66 -15 -75 -10 -9 -15 -32 -15 -77 0 -47 -4 -65 -15
-69 -11 -4 -15 -21 -15 -59 0 -34 -5 -57 -15 -65 -10 -9 -15 -32 -15 -75 0
-43 -5 -66 -15 -75 -9 -8 -15 -30 -15 -59 0 -68 27 -91 107 -91 42 0 64 -5 73
-15 9 -10 32 -15 75 -15 43 0 66 -5 75 -15 8 -9 30 -15 60 -15 30 0 52 -6 60
-15 9 -10 32 -15 75 -15 43 0 66 -5 75 -15 8 -9 30 -15 60 -15 30 0 52 -6 60
-15 9 -10 32 -15 75 -15 43 0 66 -5 75 -15 8 -9 30 -15 60 -15 30 0 52 -6 60
-15 9 -10 32 -15 75 -15 43 0 66 -5 75 -15 8 -9 30 -15 60 -15 30 0 52 -6 60
-15 9 -10 32 -15 75 -15 43 0 66 -5 75 -15 8 -9 30 -15 60 -15 30 0 52 -6 60
-15 9 -10 32 -15 74 -15 80 0 106 23 106 92 0 28 6 50 15 58 10 9 15 32 15 75
0 43 5 66 15 75 10 9 15 32 15 75 0 43 5 66 15 75 9 8 15 30 15 60 0 30 6 52
15 60 10 9 15 32 15 75 0 43 5 66 15 75 9 8 15 30 15 60 0 30 6 52 15 60 10 9
15 32 15 77 0 47 4 65 15 69 11 4 15 21 15 59 0 34 5 57 15 65 10 9 15 32 15
75 0 43 5 66 15 75 9 8 15 30 15 60 0 30 6 52 15 60 10 9 15 32 15 75 0 43 5
66 15 75 10 8 15 30 15 62 0 34 4 50 15 54 24 10 18 34 -9 34 -13 0 -29 7 -36
15 -9 10 -32 15 -77 15 -47 0 -65 4 -69 15 -4 11 -21 15 -59 15 -34 0 -57 5
-65 15 -9 10 -32 15 -75 15 -43 0 -66 5 -75 15 -8 9 -30 15 -60 15 -30 0 -52
6 -60 15 -9 10 -32 15 -75 15 -43 0 -66 5 -75 15 -8 9 -30 15 -60 15 -30 0
-52 6 -60 15 -9 10 -32 15 -75 15 -43 0 -66 5 -75 15 -8 9 -30 15 -60 15 -30
0 -52 6 -60 15 -9 10 -32 15 -75 15 -43 0 -66 5 -75 15 -8 9 -30 15 -60 15
-30 0 -52 6 -60 15 -9 10 -32 15 -75 15 -43 0 -66 5 -75 15 -13 15 -129 22
-143 8z"/>
<path d="M3837 7123 c-4 -3 -7 -21 -7 -38 0 -18 -7 -38 -15 -45 -10 -9 -15
-32 -15 -75 0 -43 -5 -66 -15 -75 -10 -9 -15 -32 -15 -77 0 -47 -4 -65 -15
-69 -11 -4 -15 -21 -15 -59 0 -34 -5 -57 -15 -65 -10 -9 -15 -32 -15 -75 0
-43 -5 -66 -15 -75 -9 -8 -15 -30 -15 -60 0 -30 -6 -52 -15 -60 -10 -9 -15
-32 -15 -75 0 -43 -5 -66 -15 -75 -9 -8 -15 -30 -15 -60 0 -30 -6 -52 -15 -60
-10 -9 -15 -32 -15 -75 0 -43 -5 -66 -15 -75 -9 -8 -15 -30 -15 -60 0 -30 -6
-52 -15 -60 -10 -9 -15 -32 -15 -75 0 -43 -5 -66 -15 -75 -9 -8 -15 -30 -15
-60 0 -30 -6 -52 -15 -60 -23 -19 -19 -73 8 -98 17 -16 36 -22 69 -22 28 0 50
-6 58 -15 9 -10 32 -15 75 -15 43 0 66 -5 75 -15 8 -9 30 -15 60 -15 30 0 52
-6 60 -15 9 -10 32 -15 75 -15 43 0 66 -5 75 -15 8 -9 30 -15 60 -15 30 0 52
-6 60 -15 9 -10 32 -15 75 -15 43 0 66 -5 75 -15 8 -9 30 -15 60 -15 30 0 52
-6 60 -15 9 -10 32 -15 75 -15 43 0 66 -5 75 -15 9 -10 32 -15 75 -15 43 0 66
-5 75 -15 8 -9 30 -15 60 -15 30 0 52 -6 60 -15 9 -10 32 -15 75 -15 43 0 66
-5 75 -15 8 -10 30 -15 62 -15 34 0 50 -4 54 -15 17 -43 63 13 64 76 0 29 6
51 15 59 10 9 15 32 15 75 0 43 5 66 15 75 9 8 15 30 15 60 0 30 6 52 15 60
10 9 15 32 15 75 0 43 5 66 15 75 9 8 15 30 15 60 0 30 6 52 15 60 10 9 15 32
15 75 0 43 5 66 15 75 9 8 15 30 15 60 0 30 6 52 15 60 10 9 15 32 15 75 0 43
5 66 15 75 10 9 15 32 15 75 0 43 5 66 15 75 9 8 15 30 15 60 0 30 6 52 15 60
10 9 15 32 15 75 0 43 5 66 15 75 9 8 15 30 15 60 0 31 5 52 15 60 9 7 15 23
13 34 -2 16 -11 22 -41 24 -22 2 -41 10 -44 18 -3 10 -21 14 -58 14 -34 0 -57
5 -65 15 -9 10 -32 15 -75 15 -43 0 -66 5 -75 15 -8 9 -30 15 -60 15 -30 0
-52 6 -60 15 -9 10 -32 15 -75 15 -43 0 -66 5 -75 15 -9 10 -32 15 -75 15 -43
0 -66 5 -75 15 -8 9 -30 15 -60 15 -30 0 -52 6 -60 15 -9 10 -32 15 -77 15
-47 0 -65 4 -69 15 -4 11 -21 15 -59 15 -34 0 -57 5 -65 15 -9 10 -32 15 -75
15 -43 0 -66 5 -75 15 -8 9 -30 15 -60 15 -30 0 -52 6 -60 15 -9 10 -32 15
-75 15 -43 0 -66 5 -75 15 -13 15 -100 22 -113 8z"/>
<path d="M5892 6657 c-16 -17 -22 -36 -22 -69 0 -28 -6 -50 -15 -58 -10 -9
-15 -32 -15 -75 0 -43 -5 -66 -15 -75 -9 -8 -15 -30 -15 -60 0 -30 -6 -52 -15
-60 -10 -9 -15 -32 -15 -75 0 -43 -5 -66 -15 -75 -9 -8 -15 -30 -15 -60 0 -30
-6 -52 -15 -60 -10 -9 -15 -32 -15 -75 0 -43 -5 -66 -15 -75 -9 -8 -15 -30
-15 -60 0 -30 -6 -52 -15 -60 -10 -9 -15 -32 -15 -75 0 -43 -5 -66 -15 -75
-10 -9 -15 -32 -15 -77 0 -47 -4 -65 -15 -69 -11 -4 -15 -21 -15 -59 0 -34 -5
-57 -15 -65 -10 -9 -15 -32 -15 -75 0 -43 -5 -66 -15 -75 -10 -8 -15 -30 -15
-62 0 -34 -4 -50 -15 -54 -43 -17 13 -63 76 -64 29 0 51 -6 59 -15 9 -10 32
-15 75 -15 43 0 66 -5 75 -15 8 -9 30 -15 60 -15 30 0 52 -6 60 -15 9 -10 32
-15 75 -15 43 0 66 -5 75 -15 9 -10 32 -15 77 -15 47 0 65 -4 69 -15 4 -11 21
-15 59 -15 34 0 57 -5 65 -15 9 -10 32 -15 75 -15 43 0 66 -5 75 -15 8 -9 30
-15 60 -15 30 0 52 -6 60 -15 9 -10 32 -15 75 -15 43 0 66 -5 75 -15 8 -9 30
-15 60 -15 30 0 52 -6 60 -15 9 -10 32 -15 75 -15 43 0 66 -5 75 -15 8 -9 30
-15 60 -15 31 0 52 -5 60 -16 9 -10 26 -14 49 -12 34 3 36 5 39 40 2 20 10 42
18 48 8 8 14 31 14 60 0 30 6 52 15 60 10 9 15 32 15 75 0 43 5 66 15 75 9 8
15 30 15 60 0 30 6 52 15 60 10 9 15 32 15 75 0 43 5 66 15 75 10 9 15 32 15
75 0 43 5 66 15 75 9 8 15 30 15 60 0 30 6 52 15 60 10 9 15 32 15 75 0 43 5
66 15 75 9 8 15 30 15 60 0 30 6 52 15 60 10 9 15 32 15 75 0 43 5 66 15 75 9
8 15 30 15 60 0 30 6 52 15 60 10 9 15 32 15 75 0 44 5 66 15 75 12 10 15 28
13 64 l-3 51 -53 3 c-35 2 -55 8 -59 18 -3 10 -21 14 -58 14 -34 0 -57 5 -65
15 -9 10 -32 15 -75 15 -43 0 -66 5 -75 15 -8 9 -30 15 -60 15 -30 0 -52 6
-60 15 -9 10 -32 15 -77 15 -47 0 -65 4 -69 15 -4 11 -21 15 -59 15 -34 0 -57
5 -65 15 -9 10 -32 15 -75 15 -43 0 -66 5 -75 15 -8 9 -30 15 -60 15 -30 0
-52 6 -60 15 -9 10 -32 15 -75 15 -43 0 -66 5 -75 15 -9 10 -32 15 -75 15 -43
0 -66 5 -75 15 -8 10 -30 15 -62 15 -34 0 -50 4 -54 15 -5 11 -23 15 -74 15
-48 0 -71 4 -80 15 -19 23 -73 19 -98 -8z"/>
<path d="M1302 5487 c-16 -17 -22 -36 -22 -69 0 -28 -6 -50 -15 -58 -10 -9
-15 -32 -15 -75 0 -43 -5 -66 -15 -75 -9 -8 -15 -30 -15 -60 0 -30 -6 -52 -15
-60 -10 -9 -15 -32 -15 -75 0 -43 -5 -66 -15 -75 -10 -9 -15 -32 -15 -75 0
-43 -5 -66 -15 -75 -9 -8 -15 -30 -15 -60 0 -30 -6 -52 -15 -60 -10 -9 -15
-32 -15 -75 0 -43 -5 -66 -15 -75 -9 -8 -15 -30 -15 -60 0 -30 -6 -52 -15 -60
-10 -9 -15 -32 -15 -75 0 -43 -5 -66 -15 -75 -9 -8 -15 -30 -15 -60 0 -30 -6
-52 -15 -60 -10 -9 -15 -32 -15 -75 0 -44 -5 -66 -16 -75 -10 -9 -14 -26 -12
-49 l3 -36 62 -3 c38 -2 66 -8 73 -17 8 -10 31 -15 65 -15 35 0 57 -5 65 -15
9 -10 32 -15 75 -15 43 0 66 -5 75 -15 8 -9 30 -15 60 -15 30 0 52 -6 60 -15
9 -10 32 -15 75 -15 43 0 66 -5 75 -15 8 -9 30 -15 60 -15 30 0 52 -6 60 -15
9 -10 32 -15 75 -15 43 0 66 -5 75 -15 8 -9 30 -15 60 -15 30 0 52 -6 60 -15
9 -10 32 -15 75 -15 43 0 66 -5 75 -15 8 -9 30 -15 60 -15 30 0 52 -6 60 -15
9 -10 32 -15 75 -15 43 0 66 -5 75 -15 8 -10 31 -15 70 -15 39 0 62 -5 70 -15
7 -8 25 -15 41 -15 28 0 29 1 29 54 0 35 5 58 15 66 10 9 15 32 15 75 0 43 5
66 15 75 9 8 15 30 15 60 0 30 6 52 15 60 10 9 15 32 15 75 0 43 5 66 15 75 9
8 15 30 15 60 0 30 6 52 15 60 10 9 15 32 15 75 0 43 5 66 15 75 10 9 15 32
15 75 0 43 5 66 15 75 9 8 15 30 15 60 0 30 6 52 15 60 10 9 15 32 15 75 0 43
5 66 15 75 9 8 15 30 15 60 0 30 6 52 15 60 10 9 15 32 15 75 0 44 5 66 15 75
12 10 15 28 13 64 -3 51 -3 51 -40 54 -20 2 -42 10 -48 18 -8 8 -31 14 -60 14
-30 0 -52 6 -60 15 -9 10 -32 15 -75 15 -43 0 -66 5 -75 15 -8 9 -30 15 -60
15 -30 0 -52 6 -60 15 -9 10 -32 15 -75 15 -43 0 -66 5 -75 15 -9 10 -32 15
-77 15 -47 0 -65 4 -69 15 -4 11 -21 15 -59 15 -34 0 -57 5 -65 15 -9 10 -32
15 -75 15 -43 0 -66 5 -75 15 -8 9 -30 15 -60 15 -30 0 -52 6 -60 15 -9 10
-32 15 -75 15 -43 0 -66 5 -75 15 -8 9 -30 15 -60 15 -30 0 -52 6 -60 15 -9
10 -32 15 -75 15 -43 0 -66 5 -75 15 -19 23 -73 19 -98 -8z"/>
<path d="M3387 5053 c-4 -3 -7 -21 -7 -38 0 -18 -7 -38 -15 -45 -9 -8 -15 -30
-15 -60 0 -30 -6 -52 -15 -60 -10 -9 -15 -32 -15 -75 0 -43 -5 -66 -15 -75 -9
-8 -15 -30 -15 -60 0 -30 -6 -52 -15 -60 -10 -9 -15 -32 -15 -75 0 -43 -5 -66
-15 -75 -9 -8 -15 -30 -15 -60 0 -30 -6 -52 -15 -60 -10 -9 -15 -32 -15 -75 0
-43 -5 -66 -15 -75 -9 -8 -15 -30 -15 -60 0 -30 -6 -52 -15 -60 -10 -9 -15
-32 -15 -75 0 -43 -5 -66 -15 -75 -10 -9 -15 -32 -15 -75 0 -43 -5 -66 -15
-75 -9 -8 -15 -30 -15 -60 0 -30 -6 -52 -15 -60 -10 -9 -15 -32 -15 -77 0 -47
-4 -65 -15 -69 -8 -4 -15 -12 -15 -20 0 -10 14 -14 54 -14 35 0 58 -5 66 -15
8 -9 30 -15 60 -15 30 0 52 -6 60 -15 9 -10 32 -15 77 -15 47 0 65 -4 69 -15
4 -11 21 -15 59 -15 34 0 57 -5 65 -15 9 -10 32 -15 75 -15 43 0 66 -5 75 -15
8 -9 30 -15 60 -15 30 0 52 -6 60 -15 9 -10 32 -15 75 -15 43 0 66 -5 75 -15
8 -9 30 -15 60 -15 30 0 52 -6 60 -15 9 -10 32 -15 75 -15 43 0 66 -5 75 -15
9 -10 32 -15 75 -15 43 0 66 -5 75 -15 8 -9 30 -15 60 -15 30 0 52 -6 60 -15
9 -10 32 -15 75 -15 44 0 66 -5 75 -16 9 -10 26 -14 49 -12 34 3 36 5 39 40 2
20 10 42 18 48 9 9 14 33 14 75 0 43 5 66 15 75 9 8 15 30 15 60 0 30 6 52 15
60 10 9 15 32 15 75 0 43 5 66 15 75 9 8 15 30 15 60 0 30 6 52 15 60 10 9 15
32 15 75 0 43 5 66 15 75 9 8 15 30 15 60 0 30 6 52 15 60 10 9 15 32 15 75 0
43 5 66 15 75 9 8 15 30 15 60 0 30 6 52 15 60 10 9 15 32 15 75 0 43 5 66 15
75 10 9 15 32 15 75 0 43 5 66 15 75 10 8 15 30 15 62 0 34 4 50 15 54 8 4 15
12 15 20 0 11 -17 14 -69 14 -49 0 -72 4 -81 15 -8 9 -30 15 -60 15 -30 0 -52
6 -60 15 -9 10 -32 15 -75 15 -43 0 -66 5 -75 15 -8 9 -30 15 -60 15 -30 0
-52 6 -60 15 -9 10 -32 15 -75 15 -43 0 -66 5 -75 15 -8 9 -30 15 -60 15 -30
0 -52 6 -60 15 -9 10 -32 15 -75 15 -43 0 -66 5 -75 15 -9 10 -32 15 -77 15
-47 0 -65 4 -69 15 -4 11 -21 15 -59 15 -34 0 -57 5 -65 15 -9 10 -32 15 -75
15 -43 0 -66 5 -75 15 -8 9 -30 15 -60 15 -30 0 -52 6 -60 15 -9 10 -32 15
-75 15 -43 0 -66 5 -75 15 -13 16 -42 20 -53 8z"/>
<path d="M5420 4556 c0 -35 -5 -58 -15 -66 -10 -9 -15 -32 -15 -75 0 -43 -5
-66 -15 -75 -9 -8 -15 -30 -15 -60 0 -30 -6 -52 -15 -60 -10 -9 -15 -32 -15
-75 0 -43 -5 -66 -15 -75 -9 -8 -15 -30 -15 -60 0 -30 -6 -52 -15 -60 -10 -9
-15 -32 -15 -75 0 -43 -5 -66 -15 -75 -10 -9 -15 -32 -15 -75 0 -43 -5 -66
-15 -75 -9 -8 -15 -30 -15 -60 0 -30 -6 -52 -15 -60 -10 -9 -15 -32 -15 -75 0
-43 -5 -66 -15 -75 -9 -8 -15 -30 -15 -60 0 -30 -6 -52 -15 -60 -10 -9 -15
-32 -15 -75 0 -43 -5 -66 -15 -75 -10 -8 -15 -31 -15 -66 l0 -54 39 0 c22 0
44 -6 51 -15 8 -9 30 -15 60 -15 30 0 52 -6 60 -15 9 -10 32 -15 75 -15 43 0
66 -5 75 -15 8 -9 30 -15 60 -15 30 0 52 -6 60 -15 9 -10 32 -15 75 -15 43 0
66 -5 75 -15 9 -10 32 -15 75 -15 43 0 66 -5 75 -15 8 -9 30 -15 60 -15 30 0
52 -6 60 -15 9 -10 32 -15 77 -15 47 0 65 -4 69 -15 4 -11 21 -15 59 -15 34 0
57 -5 65 -15 9 -10 32 -15 75 -15 43 0 66 -5 75 -15 8 -9 30 -15 60 -15 30 0
52 -6 60 -15 9 -10 32 -15 75 -15 43 0 66 -5 75 -15 8 -9 30 -15 59 -15 64 0
91 28 91 92 0 28 6 50 15 58 10 9 15 32 15 75 0 43 5 66 15 75 9 8 15 30 15
60 0 30 6 52 15 60 10 9 15 32 15 75 0 43 5 66 15 75 9 8 15 30 15 60 0 30 6
52 15 60 10 9 15 32 15 75 0 43 5 66 15 75 10 8 15 30 15 64 0 30 6 60 15 72
8 11 15 41 15 70 0 33 5 56 15 64 10 9 15 32 15 75 0 43 5 66 15 75 9 8 15 30
15 60 0 30 6 52 15 60 10 9 15 32 15 75 0 43 5 66 15 75 22 18 19 43 -8 68
-19 18 -35 22 -84 22 -42 0 -64 5 -73 15 -8 9 -30 15 -60 15 -30 0 -52 6 -60
15 -9 10 -32 15 -77 15 -47 0 -65 4 -69 15 -4 11 -21 15 -59 15 -34 0 -57 5
-65 15 -9 10 -32 15 -75 15 -43 0 -66 5 -75 15 -8 9 -30 15 -60 15 -30 0 -52
6 -60 15 -9 10 -32 15 -75 15 -43 0 -66 5 -75 15 -8 9 -30 15 -60 15 -30 0
-52 6 -60 15 -9 10 -32 15 -75 15 -43 0 -66 5 -75 15 -8 9 -30 15 -60 15 -30
0 -52 6 -60 15 -9 10 -32 15 -75 15 -43 0 -66 5 -75 15 -9 10 -32 15 -77 15
-47 0 -65 4 -69 15 -4 9 -19 15 -35 15 -28 0 -29 -1 -29 -54z"/>
<path d="M867 3523 c-4 -3 -7 -21 -7 -38 0 -18 -7 -38 -15 -45 -9 -8 -15 -30
-15 -60 0 -30 -6 -52 -15 -60 -10 -9 -15 -32 -15 -75 0 -43 -5 -66 -15 -75
-10 -9 -15 -32 -15 -75 0 -43 -5 -66 -15 -75 -9 -8 -15 -30 -15 -60 0 -30 -6
-52 -15 -60 -10 -9 -15 -32 -15 -75 0 -43 -5 -66 -15 -75 -9 -8 -15 -30 -15
-60 0 -30 -6 -52 -15 -60 -10 -9 -15 -32 -15 -75 0 -43 -5 -66 -15 -75 -9 -8
-15 -30 -15 -60 0 -30 -6 -52 -15 -60 -10 -9 -15 -32 -15 -75 0 -43 -5 -66
-15 -75 -9 -8 -15 -30 -15 -60 0 -30 -6 -52 -15 -60 -10 -9 -15 -32 -15 -75 0
-44 -5 -66 -15 -75 -12 -10 -15 -29 -13 -79 l3 -66 37 -3 c20 -2 42 -10 48
-18 8 -8 31 -14 59 -14 39 0 52 -5 76 -30 24 -25 37 -30 76 -30 29 0 51 -6 59
-15 8 -9 30 -15 60 -15 30 0 52 -6 60 -15 9 -10 32 -15 75 -15 43 0 66 -5 75
-15 9 -10 32 -15 75 -15 43 0 66 -5 75 -15 8 -9 30 -15 60 -15 30 0 52 -6 60
-15 9 -10 32 -15 75 -15 43 0 66 -5 75 -15 8 -9 30 -15 60 -15 30 0 52 -6 60
-15 9 -10 32 -15 75 -15 43 0 66 -5 75 -15 8 -9 30 -15 60 -15 30 0 52 -6 60
-15 9 -10 32 -15 75 -15 44 0 66 -5 75 -15 10 -12 28 -15 64 -13 51 3 51 3 54
40 2 20 10 42 18 48 16 14 20 90 4 90 -17 0 -11 20 15 48 27 29 34 89 13 110
-8 8 -5 14 15 21 25 10 27 14 27 75 0 44 5 67 15 76 17 14 21 90 5 90 -17 0
-11 20 15 48 28 30 32 60 10 68 -19 8 -19 30 0 38 8 3 15 14 15 24 0 11 7 25
15 32 19 16 19 49 0 56 -19 8 -19 30 0 38 8 3 15 14 15 25 0 10 7 21 15 25 20
7 19 32 -1 40 -16 6 -16 8 0 24 9 10 16 26 16 34 0 9 7 21 15 28 19 16 19 44
0 60 -14 12 -14 15 0 30 8 9 15 24 15 34 0 9 7 19 15 22 20 8 19 30 -1 38 -16
6 -16 8 0 24 9 10 16 26 16 34 0 9 7 21 15 28 19 16 19 44 0 60 -14 12 -14 15
0 30 10 11 15 37 15 79 0 46 4 63 15 67 11 5 15 21 15 60 0 39 4 56 15 60 43
17 -13 63 -76 64 -29 0 -51 6 -59 15 -9 10 -32 15 -75 15 -43 0 -66 5 -75 15
-8 9 -30 15 -60 15 -30 0 -52 6 -60 15 -9 10 -32 15 -75 15 -43 0 -66 5 -75
15 -9 10 -32 15 -75 15 -43 0 -66 5 -75 15 -8 9 -30 15 -60 15 -30 0 -52 6
-60 15 -9 10 -32 15 -75 15 -43 0 -66 5 -75 15 -8 9 -30 15 -60 15 -30 0 -52
6 -60 15 -9 10 -32 15 -75 15 -43 0 -66 5 -75 15 -8 9 -30 15 -60 15 -30 0
-52 6 -60 15 -9 10 -32 15 -75 15 -43 0 -66 5 -75 15 -8 9 -30 15 -60 15 -30
0 -52 6 -60 15 -13 16 -42 20 -53 8z"/>
<path d="M2930 3011 c0 -49 -4 -72 -15 -81 -9 -8 -15 -30 -15 -60 0 -30 -6
-52 -15 -60 -10 -9 -15 -32 -15 -75 0 -43 -5 -66 -15 -75 -9 -8 -15 -30 -15
-60 0 -30 -6 -52 -15 -60 -10 -9 -15 -32 -15 -75 0 -43 -5 -66 -15 -75 -10 -9
-15 -32 -15 -77 0 -47 -4 -65 -15 -69 -11 -4 -15 -21 -15 -59 0 -34 -5 -57
-15 -65 -10 -9 -15 -32 -15 -75 0 -43 -5 -66 -15 -75 -9 -8 -15 -30 -15 -60 0
-30 -6 -52 -15 -60 -10 -9 -15 -32 -15 -75 0 -43 -5 -66 -15 -75 -9 -8 -15
-30 -15 -60 0 -30 -6 -52 -15 -60 -10 -9 -15 -32 -15 -75 0 -44 -5 -66 -15
-75 -12 -10 -15 -28 -13 -64 3 -44 6 -51 25 -54 12 -2 27 -10 33 -18 8 -8 31
-14 60 -14 30 0 52 -6 60 -15 9 -10 32 -15 75 -15 43 0 66 -5 75 -15 9 -10 32
-15 75 -15 43 0 66 -5 75 -15 8 -9 30 -15 60 -15 30 0 52 -6 60 -15 9 -10 32
-15 75 -15 43 0 66 -5 75 -15 8 -9 30 -15 60 -15 30 0 52 -6 60 -15 9 -10 32
-15 75 -15 43 0 66 -5 75 -15 8 -9 30 -15 60 -15 30 0 52 -6 60 -15 9 -10 32
-15 75 -15 43 0 66 -5 75 -15 8 -9 30 -15 60 -15 30 0 52 -6 60 -15 9 -10 32
-15 75 -15 43 0 66 -5 75 -15 8 -9 30 -15 59 -15 68 0 91 27 91 107 0 42 5 64
15 73 9 8 15 30 15 60 0 30 6 52 15 60 10 9 15 32 15 75 0 43 5 66 15 75 10 8
15 30 15 64 0 30 6 60 15 72 8 11 15 41 15 70 0 33 5 56 15 64 10 8 15 31 15
70 0 39 5 62 15 70 10 8 15 30 15 65 0 35 5 57 15 65 10 9 15 32 15 75 0 43 5
66 15 75 9 8 15 30 15 60 0 30 6 52 15 60 10 9 15 32 15 75 0 43 5 66 15 75 9
8 15 30 15 60 0 30 6 52 15 60 10 9 15 32 15 75 0 44 5 66 15 75 22 19 15 54
-12 58 -12 2 -27 10 -33 18 -8 8 -31 14 -60 14 -30 0 -52 6 -60 15 -9 10 -32
15 -75 15 -43 0 -66 5 -75 15 -8 9 -30 15 -60 15 -30 0 -52 6 -60 15 -9 10
-32 15 -75 15 -43 0 -66 5 -75 15 -8 9 -30 15 -60 15 -30 0 -52 6 -60 15 -9
10 -32 15 -75 15 -43 0 -66 5 -75 15 -8 9 -30 15 -60 15 -30 0 -52 6 -60 15
-9 10 -32 15 -75 15 -43 0 -66 5 -75 15 -9 10 -32 15 -75 15 -43 0 -66 5 -75
15 -8 9 -30 15 -60 15 -30 0 -52 6 -60 15 -9 10 -32 15 -75 15 -43 0 -66 5
-75 15 -8 10 -30 15 -62 15 -34 0 -50 4 -54 15 -4 8 -12 15 -20 15 -11 0 -14
-17 -14 -69z"/>
<path d="M4992 2577 c-16 -17 -22 -36 -22 -69 0 -28 -6 -50 -15 -58 -10 -9
-15 -32 -15 -75 0 -43 -5 -66 -15 -75 -10 -9 -15 -32 -15 -75 0 -43 -5 -66
-15 -75 -9 -8 -15 -30 -15 -60 0 -30 -6 -52 -15 -60 -10 -9 -15 -32 -15 -75 0
-43 -5 -66 -15 -75 -9 -8 -15 -30 -15 -60 0 -30 -6 -52 -15 -60 -10 -9 -15
-32 -15 -75 0 -43 -5 -66 -15 -75 -9 -8 -15 -30 -15 -60 0 -30 -6 -52 -15 -60
-10 -9 -15 -32 -15 -75 0 -43 -5 -66 -15 -75 -9 -8 -15 -30 -15 -60 0 -30 -6
-52 -15 -60 -10 -9 -15 -32 -15 -75 0 -43 -5 -66 -15 -75 -9 -8 -15 -30 -15
-60 0 -31 -5 -52 -16 -60 -10 -9 -14 -26 -12 -49 2 -28 8 -37 25 -39 12 -2 27
-10 33 -18 9 -9 33 -14 75 -14 43 0 66 -5 75 -15 8 -9 30 -15 60 -15 30 0 52
-6 60 -15 9 -10 32 -15 75 -15 43 0 66 -5 75 -15 8 -9 30 -15 60 -15 30 0 52
-6 60 -15 9 -10 32 -15 75 -15 43 0 66 -5 75 -15 8 -9 30 -15 60 -15 30 0 52
-6 60 -15 9 -10 32 -15 75 -15 43 0 66 -5 75 -15 8 -9 30 -15 60 -15 30 0 52
-6 60 -15 9 -10 32 -15 75 -15 43 0 66 -5 75 -15 9 -10 32 -15 75 -15 43 0 66
-5 75 -15 8 -9 30 -15 60 -15 30 0 52 -6 60 -15 9 -10 32 -15 77 -15 47 0 65
-4 69 -15 4 -8 12 -15 20 -15 11 0 14 17 14 69 0 49 4 72 15 81 9 8 15 30 15
60 0 30 6 52 15 60 10 9 15 32 15 75 0 43 5 66 15 75 9 8 15 30 15 60 0 30 6
52 15 60 10 9 15 32 15 75 0 43 5 66 15 75 9 8 15 30 15 60 0 30 6 52 15 60
10 9 15 32 15 75 0 43 5 66 15 75 9 8 15 30 15 60 0 30 6 52 15 60 10 9 15 32
15 75 0 43 5 66 15 75 9 8 15 30 15 60 0 30 6 52 15 60 10 9 15 32 15 75 0 43
5 66 15 75 10 8 15 30 15 64 0 30 6 60 15 72 9 11 14 42 15 77 0 53 -1 57 -24
57 -13 0 -29 7 -36 15 -9 10 -32 15 -75 15 -43 0 -66 5 -75 15 -9 10 -32 15
-77 15 -47 0 -65 4 -69 15 -4 11 -21 15 -59 15 -34 0 -57 5 -65 15 -9 10 -32
15 -75 15 -43 0 -66 5 -75 15 -8 9 -30 15 -60 15 -30 0 -52 6 -60 15 -9 10
-32 15 -75 15 -43 0 -66 5 -75 15 -8 9 -30 15 -60 15 -30 0 -52 6 -60 15 -9
10 -32 15 -75 15 -43 0 -66 5 -75 15 -8 9 -30 15 -60 15 -30 0 -52 6 -60 15
-9 10 -32 15 -75 15 -43 0 -66 5 -75 15 -8 9 -30 15 -60 15 -30 0 -52 6 -60
15 -9 10 -32 15 -74 15 -52 0 -66 -4 -84 -23z"/>
</g>
</svg>
